<?xml version="1.0" standalone="no"?>
<!DOCTYPE svg PUBLIC "-//W3C//DTD SVG 20010904//EN"
 "http://www.w3.org/TR/2001/REC-SVG-20010904/DTD/svg10.dtd">
<svg version="1.0" xmlns="http://www.w3.org/2000/svg"
 width="981.000000pt" height="981.000000pt" viewBox="0 0 981.000000 981.000000"
 preserveAspectRatio="xMidYMid meet">
<metadata>
Created by potrace 1.11, written by Peter Selinger 2001-2013
</metadata>
<g transform="translate(0.000000,981.000000) scale(0.100000,-0.100000)"
fill="#000000" stroke="none">
<path d="M445 9090 c-204 -27 -377 -181 -431 -385 -20 -74 -20 -7516 0 -7590
46 -174 179 -314 350 -368 l71 -22 4465 0 4465 0 70 22 c167 52 295 181 348
348 l22 70 0 3750 0 3750 -23 65 c-61 169 -170 278 -336 339 l-71 26 -4435 1
c-2439 1 -4462 -2 -4495 -6z m5499 -689 c192 -84 293 -285 242 -479 -19 -70
-71 -155 -121 -199 -108 -95 -271 -129 -398 -83 -113 41 -192 112 -245 220
-24 50 -27 66 -27 165 0 100 3 115 28 166 52 108 134 179 252 222 67 24 200
18 269 -12z m1190 -14 c306 -152 305 -574 -2 -728 -63 -32 -73 -34 -172 -34
-98 0 -110 2 -171 32 -207 102 -292 330 -198 534 51 110 158 200 274 230 17 5
67 7 112 5 71 -2 92 -7 157 -39z m1157 5 c258 -123 316 -454 116 -654 -137
-137 -353 -157 -514 -47 -55 38 -108 101 -141 169 -24 50 -27 66 -27 165 0
100 3 115 28 166 52 108 134 179 252 222 79 28 202 19 286 -21z m459 -3962 l0
-2650 -3850 0 -3850 0 0 2650 0 2650 3850 0 3850 0 0 -2650z"/>
<path d="M2949 6386 c-71 -27 -115 -55 -161 -103 -116 -120 -145 -294 -73
-450 23 -51 104 -136 673 -705 l647 -648 -646 -647 c-702 -704 -687 -687 -708
-820 -42 -270 192 -503 456 -454 135 25 113 5 989 884 717 718 813 818 833
865 34 82 45 161 32 234 -24 137 6 103 -875 984 -925 926 -854 866 -1031 871
-67 2 -112 -2 -136 -11z"/>
<path d="M5091 3339 c-115 -19 -226 -103 -284 -214 -26 -51 -31 -74 -35 -151
-3 -66 0 -107 12 -147 22 -76 96 -170 166 -213 111 -67 63 -65 1241 -62 l1064
3 58 23 c82 33 176 123 213 204 26 57 29 73 29 168 0 93 -3 112 -27 162 -56
121 -174 209 -304 228 -87 12 -2057 11 -2133 -1z"/>
</g>
</svg>
